<mxfile host="app.diagrams.net" modified="2023-03-09T05:54:19.529Z" agent="5.0 (X11; Linux x86_64) AppleWebKit/537.36 (KHTML, like Gecko) Chrome/110.0.0.0 Safari/537.36" etag="LCokn2iEik2lie8wtHgK" version="21.0.4" type="github">
  <diagram name="Page-1" id="FK_m5TaOgHYKiMlL_SUF">
    <mxGraphModel dx="1562" dy="899" grid="1" gridSize="10" guides="1" tooltips="1" connect="1" arrows="1" fold="1" page="1" pageScale="1" pageWidth="1169" pageHeight="827" math="0" shadow="0">
      <root>
        <mxCell id="0" />
        <mxCell id="1" parent="0" />
        <mxCell id="87T1zji_igw5ParsHrZg-27" value="" style="rounded=0;whiteSpace=wrap;html=1;" parent="1" vertex="1">
          <mxGeometry x="910" y="120" width="208" height="570" as="geometry" />
        </mxCell>
        <mxCell id="87T1zji_igw5ParsHrZg-30" style="edgeStyle=orthogonalEdgeStyle;rounded=0;orthogonalLoop=1;jettySize=auto;html=1;entryX=0;entryY=0.5;entryDx=0;entryDy=0;" parent="1" source="87T1zji_igw5ParsHrZg-2" target="87T1zji_igw5ParsHrZg-22" edge="1">
          <mxGeometry relative="1" as="geometry" />
        </mxCell>
        <mxCell id="MHz8mmHtRupeyB18K840-4" style="edgeStyle=orthogonalEdgeStyle;rounded=0;orthogonalLoop=1;jettySize=auto;html=1;exitX=1;exitY=0.75;exitDx=0;exitDy=0;" parent="1" source="87T1zji_igw5ParsHrZg-2" target="87T1zji_igw5ParsHrZg-24" edge="1">
          <mxGeometry relative="1" as="geometry" />
        </mxCell>
        <mxCell id="87T1zji_igw5ParsHrZg-2" value="" style="rounded=0;whiteSpace=wrap;html=1;" parent="1" vertex="1">
          <mxGeometry x="230" y="120" width="600" height="570" as="geometry" />
        </mxCell>
        <mxCell id="87T1zji_igw5ParsHrZg-4" value="" style="edgeStyle=orthogonalEdgeStyle;rounded=0;orthogonalLoop=1;jettySize=auto;html=1;" parent="1" source="87T1zji_igw5ParsHrZg-1" target="87T1zji_igw5ParsHrZg-3" edge="1">
          <mxGeometry relative="1" as="geometry" />
        </mxCell>
        <mxCell id="87T1zji_igw5ParsHrZg-1" value="trader Server&lt;br&gt;API（券商）" style="rounded=1;whiteSpace=wrap;html=1;" parent="1" vertex="1">
          <mxGeometry x="10" y="200" width="120" height="60" as="geometry" />
        </mxCell>
        <mxCell id="87T1zji_igw5ParsHrZg-13" value="" style="edgeStyle=orthogonalEdgeStyle;rounded=0;orthogonalLoop=1;jettySize=auto;html=1;" parent="1" source="87T1zji_igw5ParsHrZg-3" target="87T1zji_igw5ParsHrZg-11" edge="1">
          <mxGeometry relative="1" as="geometry" />
        </mxCell>
        <mxCell id="87T1zji_igw5ParsHrZg-3" value="Converter&lt;br&gt;(Haojie)" style="rounded=1;whiteSpace=wrap;html=1;" parent="1" vertex="1">
          <mxGeometry x="280" y="200" width="120" height="60" as="geometry" />
        </mxCell>
        <mxCell id="87T1zji_igw5ParsHrZg-15" value="" style="edgeStyle=orthogonalEdgeStyle;rounded=0;orthogonalLoop=1;jettySize=auto;html=1;" parent="1" source="87T1zji_igw5ParsHrZg-8" target="87T1zji_igw5ParsHrZg-12" edge="1">
          <mxGeometry relative="1" as="geometry" />
        </mxCell>
        <mxCell id="87T1zji_igw5ParsHrZg-8" value="Alpha Generator" style="rounded=1;whiteSpace=wrap;html=1;" parent="1" vertex="1">
          <mxGeometry x="280" y="400" width="120" height="60" as="geometry" />
        </mxCell>
        <mxCell id="87T1zji_igw5ParsHrZg-14" value="" style="edgeStyle=orthogonalEdgeStyle;rounded=0;orthogonalLoop=1;jettySize=auto;html=1;" parent="1" source="87T1zji_igw5ParsHrZg-11" target="87T1zji_igw5ParsHrZg-8" edge="1">
          <mxGeometry relative="1" as="geometry" />
        </mxCell>
        <mxCell id="gYhfpSklG8dhAMIoSTJV-4" style="edgeStyle=orthogonalEdgeStyle;rounded=0;orthogonalLoop=1;jettySize=auto;html=1;dashed=1;dashPattern=12 12;" parent="1" source="87T1zji_igw5ParsHrZg-11" target="gYhfpSklG8dhAMIoSTJV-3" edge="1">
          <mxGeometry relative="1" as="geometry" />
        </mxCell>
        <mxCell id="87T1zji_igw5ParsHrZg-11" value="ZeroMQ1" style="shape=parallelogram;perimeter=parallelogramPerimeter;whiteSpace=wrap;html=1;fixedSize=1;" parent="1" vertex="1">
          <mxGeometry x="280" y="300" width="120" height="60" as="geometry" />
        </mxCell>
        <mxCell id="87T1zji_igw5ParsHrZg-17" value="" style="edgeStyle=orthogonalEdgeStyle;rounded=0;orthogonalLoop=1;jettySize=auto;html=1;" parent="1" source="87T1zji_igw5ParsHrZg-12" target="87T1zji_igw5ParsHrZg-16" edge="1">
          <mxGeometry relative="1" as="geometry" />
        </mxCell>
        <mxCell id="gYhfpSklG8dhAMIoSTJV-5" style="edgeStyle=orthogonalEdgeStyle;rounded=0;orthogonalLoop=1;jettySize=auto;html=1;dashed=1;dashPattern=12 12;" parent="1" source="87T1zji_igw5ParsHrZg-12" target="gYhfpSklG8dhAMIoSTJV-3" edge="1">
          <mxGeometry relative="1" as="geometry" />
        </mxCell>
        <mxCell id="87T1zji_igw5ParsHrZg-12" value="ZeroMQ2" style="shape=parallelogram;perimeter=parallelogramPerimeter;whiteSpace=wrap;html=1;fixedSize=1;" parent="1" vertex="1">
          <mxGeometry x="280" y="510" width="120" height="60" as="geometry" />
        </mxCell>
        <mxCell id="87T1zji_igw5ParsHrZg-18" style="edgeStyle=orthogonalEdgeStyle;rounded=0;orthogonalLoop=1;jettySize=auto;html=1;entryX=0.5;entryY=1;entryDx=0;entryDy=0;" parent="1" source="87T1zji_igw5ParsHrZg-16" target="87T1zji_igw5ParsHrZg-1" edge="1">
          <mxGeometry relative="1" as="geometry" />
        </mxCell>
        <mxCell id="87T1zji_igw5ParsHrZg-16" value="Rope&amp;nbsp;" style="rounded=1;whiteSpace=wrap;html=1;" parent="1" vertex="1">
          <mxGeometry x="280" y="610" width="120" height="60" as="geometry" />
        </mxCell>
        <mxCell id="87T1zji_igw5ParsHrZg-19" value="Trader data-center" style="text;html=1;strokeColor=none;fillColor=none;align=center;verticalAlign=middle;whiteSpace=wrap;rounded=0;" parent="1" vertex="1">
          <mxGeometry x="240" y="130" width="130" height="30" as="geometry" />
        </mxCell>
        <mxCell id="MHz8mmHtRupeyB18K840-5" style="edgeStyle=orthogonalEdgeStyle;rounded=0;orthogonalLoop=1;jettySize=auto;html=1;exitX=0;exitY=0.5;exitDx=0;exitDy=0;entryX=1.002;entryY=0.193;entryDx=0;entryDy=0;entryPerimeter=0;" parent="1" source="87T1zji_igw5ParsHrZg-20" target="87T1zji_igw5ParsHrZg-2" edge="1">
          <mxGeometry relative="1" as="geometry" />
        </mxCell>
        <mxCell id="5ibjlfIiH1ScnZr-XAYS-1" value="" style="edgeStyle=orthogonalEdgeStyle;rounded=0;orthogonalLoop=1;jettySize=auto;html=1;" edge="1" parent="1" source="87T1zji_igw5ParsHrZg-20" target="87T1zji_igw5ParsHrZg-22">
          <mxGeometry relative="1" as="geometry" />
        </mxCell>
        <mxCell id="87T1zji_igw5ParsHrZg-20" value="Configuration control&lt;br&gt;(e.g. 目标仓位)" style="rounded=1;whiteSpace=wrap;html=1;" parent="1" vertex="1">
          <mxGeometry x="963" y="200" width="120" height="60" as="geometry" />
        </mxCell>
        <mxCell id="87T1zji_igw5ParsHrZg-22" value="footstep collector&lt;br&gt;（仓位，alpha，订单等）" style="rounded=1;whiteSpace=wrap;html=1;" parent="1" vertex="1">
          <mxGeometry x="963" y="375" width="120" height="60" as="geometry" />
        </mxCell>
        <mxCell id="87T1zji_igw5ParsHrZg-24" value="Data collector&lt;br&gt;(For offline processing, 回测, etc.)" style="rounded=1;whiteSpace=wrap;html=1;" parent="1" vertex="1">
          <mxGeometry x="963" y="517" width="120" height="60" as="geometry" />
        </mxCell>
        <mxCell id="87T1zji_igw5ParsHrZg-28" value="Cloud or own own data center" style="text;html=1;strokeColor=none;fillColor=none;align=center;verticalAlign=middle;whiteSpace=wrap;rounded=0;" parent="1" vertex="1">
          <mxGeometry x="910" y="130" width="200" height="30" as="geometry" />
        </mxCell>
        <mxCell id="87T1zji_igw5ParsHrZg-33" value="&lt;h1&gt;Input&lt;/h1&gt;&lt;p&gt;两种：快照数据和逐笔数据&lt;br&gt;&lt;span style=&quot;background-color: initial;&quot;&gt;快照数据：三秒 一条&lt;br&gt;逐笔数据：随时发送&lt;br&gt;大小：快照数据:1520Byte 逐笔数据:224Byte&lt;br&gt;每天四小时百 GiB，压缩后10GiB&lt;br&gt;Test data@venti - /tmp/cntick/nano/zsh1&lt;/span&gt;&lt;/p&gt;" style="text;html=1;strokeColor=none;fillColor=none;spacing=5;spacingTop=-20;whiteSpace=wrap;overflow=hidden;rounded=0;" parent="1" vertex="1">
          <mxGeometry x="420" y="150" width="280" height="120" as="geometry" />
        </mxCell>
        <mxCell id="87T1zji_igw5ParsHrZg-34" value="&lt;h1&gt;Generate Alpha&lt;/h1&gt;&lt;p&gt;数据：Alpha，以 单个bin 文件的形式&lt;span style=&quot;background-color: initial;&quot;&gt;&lt;br&gt;每天总量约几百 MiB&lt;/span&gt;&lt;/p&gt;" style="text;html=1;strokeColor=none;fillColor=none;spacing=5;spacingTop=-20;whiteSpace=wrap;overflow=hidden;rounded=0;" parent="1" vertex="1">
          <mxGeometry x="420" y="360" width="280" height="120" as="geometry" />
        </mxCell>
        <mxCell id="87T1zji_igw5ParsHrZg-35" value="&lt;h1&gt;Generate Decision&lt;/h1&gt;&lt;p&gt;&lt;span style=&quot;background-color: initial;&quot;&gt;通过券商柜台 API response 配合 input 算 latency&lt;/span&gt;&lt;/p&gt;" style="text;html=1;strokeColor=none;fillColor=none;spacing=5;spacingTop=-20;whiteSpace=wrap;overflow=hidden;rounded=0;" parent="1" vertex="1">
          <mxGeometry x="410" y="577" width="280" height="120" as="geometry" />
        </mxCell>
        <mxCell id="gYhfpSklG8dhAMIoSTJV-3" value="Replace with Kungfu&lt;br&gt;(direction: Add a new protocol to tube tool)" style="shape=note;whiteSpace=wrap;html=1;backgroundOutline=1;darkOpacity=0.05;" parent="1" vertex="1">
          <mxGeometry x="700" y="280" width="80" height="100" as="geometry" />
        </mxCell>
        <mxCell id="gYhfpSklG8dhAMIoSTJV-6" value="" style="endArrow=classic;startArrow=classic;html=1;rounded=0;dashed=1;dashPattern=12 12;" parent="1" edge="1">
          <mxGeometry width="50" height="50" relative="1" as="geometry">
            <mxPoint x="144" y="640" as="sourcePoint" />
            <mxPoint x="144" y="230" as="targetPoint" />
          </mxGeometry>
        </mxCell>
        <mxCell id="gYhfpSklG8dhAMIoSTJV-7" value="End-to-end-latency" style="edgeLabel;html=1;align=center;verticalAlign=middle;resizable=0;points=[];" parent="gYhfpSklG8dhAMIoSTJV-6" vertex="1" connectable="0">
          <mxGeometry x="0.0773" y="-2" relative="1" as="geometry">
            <mxPoint as="offset" />
          </mxGeometry>
        </mxCell>
        <mxCell id="gYhfpSklG8dhAMIoSTJV-8" value="latency 1" style="endArrow=classic;startArrow=classic;html=1;rounded=0;dashed=1;dashPattern=12 12;" parent="1" edge="1">
          <mxGeometry width="50" height="50" relative="1" as="geometry">
            <mxPoint x="180" y="360" as="sourcePoint" />
            <mxPoint x="180" y="230" as="targetPoint" />
            <Array as="points">
              <mxPoint x="180" y="290" />
            </Array>
          </mxGeometry>
        </mxCell>
        <mxCell id="gYhfpSklG8dhAMIoSTJV-9" value="latency 1" style="endArrow=classic;startArrow=classic;html=1;rounded=0;dashed=1;dashPattern=12 12;" parent="1" edge="1">
          <mxGeometry width="50" height="50" relative="1" as="geometry">
            <mxPoint x="190" y="640" as="sourcePoint" />
            <mxPoint x="190" y="460" as="targetPoint" />
          </mxGeometry>
        </mxCell>
      </root>
    </mxGraphModel>
  </diagram>
</mxfile>
